<?xml version="1.0" encoding="utf-8"?>
<!-- Generator: Adobe Illustrator 18.0.0, SVG Export Plug-In . SVG Version: 6.00 Build 0)  -->
<!DOCTYPE svg PUBLIC "-//W3C//DTD SVG 1.1//EN" "http://www.w3.org/Graphics/SVG/1.1/DTD/svg11.dtd">
<svg version="1.1" id="SemiBold" xmlns="http://www.w3.org/2000/svg" xmlns:xlink="http://www.w3.org/1999/xlink" x="0px" y="0px"
	 viewBox="17 294 576.7 199" style="enable-background:new 17 294 576.7 199;" xml:space="preserve">
<style type="text/css">
	.st0{fill:#2B2B2B;stroke:#2B2B2B;stroke-width:1.5;stroke-miterlimit:10;}
	.st1{fill:#FFFFFF;}
	.st2{fill:none;}
	.st3{fill:url(#SVGID_1_);}
	.st4{fill:url(#SVGID_2_);}
	.st5{fill:url(#SVGID_3_);}
	.st6{fill:url(#SVGID_4_);}
</style>
<path class="st0" d="M592,463.3c0,17.3-12.8,28.3-30.1,28.3H50.1c-17.3,0-31.5-14.1-31.5-31.5V326.8c0-17.3,14.1-31.5,31.5-31.5
	h511.5c17.3,0,30.1,14.1,30.1,31.5v136.5H592z"/>
<g>
	<g>
		<path class="st1" d="M410.4,436.4l-4.3,4c-1.1,0.5-1.9,1.1-2.9,1.6c-2.9,1.3-6.1,1.6-8.8,1.6c-2.9,0-7.5-0.3-12-3.5
			c-6.4-4.5-9.1-12.3-9.1-18.9c0-13.9,11.5-20.8,20.5-20.8c3.2,0,6.7,0.8,9.3,2.4c4.5,2.9,5.6,6.9,6.4,8.8l-21.1,8.5l-6.9,0.5
			c2.1,11.5,9.9,18.1,18.7,18.1C404.3,439.1,407.5,437.7,410.4,436.4C410.4,436.1,410.9,435.9,410.4,436.4z M397.6,413.5
			c1.6-0.5,2.7-1.1,2.7-2.4c0-3.5-4-7.7-8.8-7.7c-3.5,0-10.4,2.7-10.4,12.5c0,1.6,0.3,3.2,0.3,4.8L397.6,413.5z"/>
		<path class="st1" d="M366.1,435.6c0,3.5,0.5,4,3.5,4.3c1.6,0.3,3.2,0.3,4.5,0.5l-3.2,1.9h-15.7c2.1-2.7,2.4-2.9,2.4-4.8v-2.1
			v-53.6h-6.9l6.7-3.2h12.8c-2.7,1.6-3.7,2.7-4,5.9V435.6z"/>
		<path class="st1" d="M341.6,404.9c2.1,1.6,6.4,5.3,6.4,12.3c0,6.7-3.7,9.9-7.5,12.8c-1.1,1.1-2.4,2.4-2.4,4.5c0,1.9,1.3,3.2,2.4,4
			l3.2,2.4c4,3.5,7.5,6.4,7.5,12.5c0,8.5-8.3,17.1-23.7,17.1c-13.1,0-19.5-6.1-19.5-12.8c0-3.2,1.6-7.7,6.9-10.9
			c5.6-3.5,13.1-4,17.1-4c-1.3-1.6-2.7-3.5-2.7-6.1c0-1.6,0.5-2.4,0.8-3.5c-1.1,0-1.9,0.3-2.9,0.3c-9.6,0-14.9-7.2-14.9-14.1
			c0-4.3,1.9-8.8,5.9-12c5.1-4.3,11.2-5.1,16-5.1h18.7l-5.9,3.2h-5.3V404.9z M335.2,444.7c-0.8,0-1.1,0-2.1,0
			c-0.8,0-5.6,0.3-9.3,1.3c-1.9,0.8-7.7,2.9-7.7,9.3s6.1,10.9,15.7,10.9c8.5,0,13.3-4.3,13.3-9.6
			C345.1,452.1,342.1,449.7,335.2,444.7z M337.9,427.6c2.1-2.1,2.1-5.1,2.1-6.7c0-6.4-3.7-16.5-11.5-16.5c-2.4,0-4.8,1.1-6.4,2.9
			c-1.6,1.9-1.9,4.3-1.9,6.7c0,6.1,3.5,16,11.2,16C334.1,430.3,336.5,429.2,337.9,427.6z"/>
		<path class="st1" d="M285.9,443.6c-14.4,0-21.9-11.2-21.9-21.3c0-11.7,9.6-21.9,23.2-21.9c13.3,0,21.6,10.4,21.6,21.3
			C308.8,432.4,300.5,443.6,285.9,443.6z M297.1,436.1c2.1-2.9,2.7-6.4,2.7-9.9c0-8-3.7-22.9-14.9-22.9c-2.9,0-5.9,1.1-8,2.9
			c-3.5,3.2-4.3,7.2-4.3,10.9c0,8.8,4.3,23.5,15.2,23.5C291.5,440.9,294.9,439.1,297.1,436.1z"/>
		<path class="st1" d="M237.9,443.6c-14.4,0-21.9-11.2-21.9-21.3c0-11.7,9.6-21.9,23.2-21.9c13.3,0,21.6,10.4,21.6,21.3
			C260.8,432.4,252.5,443.6,237.9,443.6z M249.3,436.1c2.1-2.9,2.7-6.4,2.7-9.9c0-8-3.7-22.9-14.9-22.9c-2.9,0-5.9,1.1-8,2.9
			c-3.5,3.2-4.3,7.2-4.3,10.9c0,8.8,4.5,23.5,15.2,23.5C243.5,440.9,247.2,439.1,249.3,436.1z"/>
		<path class="st1" d="M210.4,440.4l-12,2.7c-4.8,0.8-9.3,1.3-13.9,1.3c-23.2,0-32.3-17.1-32.3-30.7c0-16.3,12.5-31.5,34.1-31.5
			c4.5,0,8.8,0.8,12.8,1.9c6.4,1.9,9.3,4,11.2,5.3l-6.9,6.7l-2.9,0.5l2.1-3.5c-2.9-2.7-8-8-18.1-8c-13.3,0-23.5,10.1-23.5,24.8
			c0,15.7,11.5,30.7,29.9,30.7c5.3,0,8.3-1.1,10.7-2.1v-13.6l-12.8,0.8l6.7-3.7h17.9l-2.1,2.1c-0.5,1.1-0.5,1.3-0.8,1.9
			c0,0.8-0.3,3.2-0.3,4v10.4H210.4z"/>
	</g>
	<g>
		<path class="st1" d="M436.5,436.7v22.9H432v-58.4h4.5v6.7c2.9-4.3,8.3-7.7,14.7-7.7c11.2,0,18.9,8.5,18.9,22.1
			c0,13.3-7.7,22.1-18.9,22.1C445.1,444.7,439.7,441.5,436.5,436.7z M465.1,422.3c0-10.1-5.3-18.1-14.7-18.1
			c-5.9,0-11.5,4.5-13.9,8.5v18.7c2.4,4,8,8.8,13.9,8.8C459.7,440.4,465.1,432.7,465.1,422.3z"/>
		<path class="st1" d="M476.3,443.6v-58.4h4.5v58.4H476.3z"/>
		<path class="st1" d="M531.7,455.9c1.1,0.5,2.7,0.8,3.7,0.8c2.7,0,4.8-1.1,6.4-5.1l3.2-7.5l-17.9-42.7h5.1l15.5,36.8l15.2-36.8h5.1
			l-21.6,51.2c-2.4,5.3-5.9,7.7-10.7,7.7c-1.6,0-3.5-0.3-4.5-0.5L531.7,455.9z"/>
		<path class="st1" d="M518.4,443.3c-0.3-1.3-0.5-2.7-0.8-3.7c-0.3-1.1-0.3-2.1-0.3-3.2c-1.6,2.4-3.7,4.3-6.7,5.6
			c-2.9,1.6-5.6,2.1-9.1,2.1c-4.5,0-8-1.1-10.4-3.2c-2.4-2.1-3.7-5.3-3.7-9.1s1.9-6.9,5.3-9.3c3.5-2.4,8.3-3.5,13.9-3.5h10.7v-5.3
			c0-2.9-1.1-5.3-3.2-7.2c-2.1-1.6-5.1-2.7-8.8-2.7c-3.5,0-6.1,0.8-8.3,2.4c-2.1,1.6-3.2,3.5-3.2,5.9h-4.5v-0.3
			c-0.3-3.2,1.3-5.9,4.3-8.5c3.2-2.4,7.2-3.7,12-3.7c5.1,0,9.1,1.1,12,3.5s4.5,5.9,4.5,10.1V434c0,1.6,0,2.9,0.3,4.3
			c0.3,1.3,0.5,2.9,0.8,4.3h-4.8V443.3z M502.4,440.1c4,0,6.7-0.8,9.6-2.7c2.9-1.6,4.8-4,5.9-6.7v-8h-10.7c-4,0-7.5,0.8-10.1,2.7
			c-2.7,1.9-4,4-4,6.7c0,2.4,0.8,4.3,2.7,5.9C497.1,439.3,499.5,440.1,502.4,440.1z"/>
	</g>
</g>
<g>
	<polygon class="st2" points="92.8,419.9 107.5,405.5 107.5,405.5 92.8,419.9 46.1,373.5 46.1,373.5 92.8,419.9 46.1,466.8 
		46.1,466.8 92.8,419.9 107.5,434.5 107.5,434.5 	"/>
	
		<linearGradient id="SVGID_1_" gradientUnits="userSpaceOnUse" x1="519.5869" y1="1225.0227" x2="496.5105" y2="1239.4648" gradientTransform="matrix(1.8856 1.8856 1.8856 -1.8856 -3206.6501 1746.3824)">
		<stop  offset="0" style="stop-color:#D6FFA1"/>
		<stop  offset="0.3264" style="stop-color:#93E2A7"/>
		<stop  offset="1" style="stop-color:#00A3B5"/>
	</linearGradient>
	<path class="st3" d="M107.5,405.5L50.4,374c-1.6-0.8-3.2-1.1-4.3-0.8l46.7,46.7L107.5,405.5z"/>
	
		<linearGradient id="SVGID_2_" gradientUnits="userSpaceOnUse" x1="506.1679" y1="1237.386" x2="536.0876" y2="1229.5648" gradientTransform="matrix(1.8856 1.8856 1.8856 -1.8856 -3206.6501 1746.3824)">
		<stop  offset="0" style="stop-color:#FF177B"/>
		<stop  offset="0.6721" style="stop-color:#FFA976"/>
		<stop  offset="1" style="stop-color:#FFEC73"/>
	</linearGradient>
	<path class="st4" d="M107.5,434.5l19.5-10.7c4-2.1,4-5.6,0-8l-19.5-10.7l-14.7,14.7L107.5,434.5z"/>
	
		<linearGradient id="SVGID_3_" gradientUnits="userSpaceOnUse" x1="522.8206" y1="1213.9812" x2="490.3766" y2="1233.0692" gradientTransform="matrix(1.8856 1.8856 1.8856 -1.8856 -3206.6501 1746.3824)">
		<stop  offset="0" style="stop-color:#63FFD4"/>
		<stop  offset="0.4854" style="stop-color:#32A0BA"/>
		<stop  offset="0.8349" style="stop-color:#1262A9"/>
		<stop  offset="1" style="stop-color:#064AA2"/>
	</linearGradient>
	<path class="st5" d="M46.1,373.5c-1.6,0.5-2.9,2.4-2.9,5.1V462c0,2.7,1.1,4.3,2.7,4.8l46.7-46.7L46.1,373.5z"/>
	
		<linearGradient id="SVGID_4_" gradientUnits="userSpaceOnUse" x1="534.6887" y1="1229.16" x2="514.7122" y2="1202.8419" gradientTransform="matrix(1.8856 1.8856 1.8856 -1.8856 -3206.6501 1746.3824)">
		<stop  offset="0" style="stop-color:#FF4521"/>
		<stop  offset="0.3411" style="stop-color:#D43E65"/>
		<stop  offset="0.7935" style="stop-color:#9F36B9"/>
		<stop  offset="1" style="stop-color:#8A33DB"/>
	</linearGradient>
	<path class="st6" d="M46.1,466.8c1.3,0.5,2.7,0.3,4.3-0.8l57.1-31.2l-14.7-14.7L46.1,466.8z"/>
</g>
<g>
	<g>
		<path class="st1" d="M152,337.5c0-9.1,6.7-14.7,14.9-14.7c5.6,0,9.1,2.7,11.5,5.9l-4,2.4c-1.6-2.1-4.3-3.7-7.5-3.7
			c-5.6,0-9.9,4.3-9.9,10.4c0,5.9,4.3,10.4,9.9,10.4c2.9,0,5.3-1.3,6.7-2.7v-4.8h-8.3v-4.3h13.3v10.7c-2.7,3.2-6.7,5.3-11.7,5.3
			C158.7,352.1,152,346.3,152,337.5z"/>
		<path class="st1" d="M184.8,351.6v-28.5h19.5v4.3h-14.4v7.5H204v4.3h-14.1v8h14.4v4.3h-19.5V351.6z"/>
		<path class="st1" d="M218.1,351.6v-24h-8.5v-4.3h22.1v4.3h-8.5v24H218.1z"/>
		<path class="st1" d="M249.1,351.6v-28.5h5.1v28.5C254.1,351.6,249.1,351.6,249.1,351.6z"/>
		<path class="st1" d="M268,351.6v-24h-8.5v-4.3h22.1v4.3h-8.5v24H268z"/>
		<path class="st1" d="M297.9,337.5c0-8.5,6.1-14.7,14.7-14.7s14.7,6.1,14.7,14.7c0,8.5-6.1,14.7-14.7,14.7
			C303.7,352.1,297.9,345.7,297.9,337.5z M321.9,337.5c0-5.9-3.7-10.4-9.3-10.4c-5.9,0-9.3,4.3-9.3,10.4c0,5.9,3.7,10.4,9.3,10.4
			C318.1,347.6,321.9,343.1,321.9,337.5z"/>
		<path class="st1" d="M352.5,351.6l-14.9-20.3v20.3h-5.1v-28.5h5.1l14.7,19.7v-19.7h5.1v28.5C357.3,351.6,352.5,351.6,352.5,351.6z
			"/>
	</g>
</g>
</svg>
