<svg id="Layer_1" data-name="Layer 1" xmlns="http://www.w3.org/2000/svg" viewBox="0 0 360 50.4"><defs><style>.cls-1{fill:#00adef;}</style></defs><title>SB-logo</title><path class="cls-1" d="M122.91,3.17v45h24.7l7.83-7.83V11l-7.83-7.83h-24.7Zm7.5,37.54v-30H144.5l3.43,3.43V37.27L144.5,40.7H130.41Z"/><polygon class="cls-1" points="188.59 14.75 179.83 23.51 171.08 14.75 171.08 3.17 163.57 3.17 163.57 17.86 176.08 30.37 176.08 48.21 183.59 48.21 183.59 30.37 196.1 17.86 196.1 3.17 188.59 3.17 188.59 14.75"/><polygon class="cls-1" points="12.49 10.68 23.14 10.68 30.32 17.86 35.64 12.55 26.25 3.17 9.38 3.17 1.55 11 1.55 21.61 9.38 29.44 23.14 29.44 26.57 32.88 26.57 37.27 23.14 40.7 12.49 40.7 5.3 33.52 0 38.82 9.38 48.21 26.25 48.21 34.08 40.38 34.08 29.76 26.25 21.93 12.49 21.93 9.06 18.51 9.06 14.11 12.49 10.68"/><polygon class="cls-1" points="41.27 10.05 53.48 10.05 53.48 48.21 60.98 48.21 60.98 10.05 73.18 10.05 73.18 3.17 41.27 3.17 41.27 10.05"/><polygon class="cls-1" points="106.64 37.27 103.21 40.7 92.56 40.7 89.13 37.27 89.13 3.17 81.62 3.17 81.62 40.38 89.45 48.21 106.32 48.21 114.15 40.38 114.15 3.17 106.64 3.17 106.64 37.27"/><polygon class="cls-1" points="311.2 37.27 307.77 40.7 297.12 40.7 293.69 37.27 293.69 3.17 286.18 3.17 286.18 40.38 294.01 48.21 310.88 48.21 318.7 40.38 318.7 3.17 311.2 3.17 311.2 37.27"/><path class="cls-1" d="M204.23,3.17v45h24.69l7.83-7.83V29.76l-4.07-4.07,4.07-4.08V11l-7.83-7.83H204.23Zm7.51,37.54V29.44h14.08l3.43,3.43v4.4l-3.43,3.43H211.74Zm0-18.77V10.68h14.08l3.43,3.43v4.4l-3.43,3.43H211.74Z"/><polygon class="cls-1" points="253.02 3.17 245.52 3.17 245.52 48.21 278.05 48.21 278.05 40.7 253.02 40.7 253.02 3.17"/><polygon class="cls-1" points="327.47 48.21 360 48.21 360 40.7 334.98 40.7 334.98 29.44 353.74 29.44 353.74 21.93 334.98 21.93 334.98 10.68 360 10.68 360 3.17 327.47 3.17 327.47 48.21"/></svg>